<?xml version="1.0" encoding="UTF-8" standalone="no"?><!DOCTYPE svg PUBLIC "-//W3C//DTD SVG 1.1//EN" "http://www.w3.org/Graphics/SVG/1.1/DTD/svg11.dtd"><svg width="100%" height="100%" viewBox="0 0 800 620" version="1.1" xmlns="http://www.w3.org/2000/svg" xmlns:xlink="http://www.w3.org/1999/xlink" xml:space="preserve" xmlns:serif="http://www.serif.com/" style="fill-rule:evenodd;clip-rule:evenodd;stroke-linejoin:round;stroke-miterlimit:2;"><g><g><path d="M400,285.102c-73.8,-14.65 -145.032,-56.3 -183.094,-114.41c68.914,8.736 137.574,54.5 183.094,114.41Z" style="fill:#88c7db;fill-rule:nonzero;"/></g><g><path d="M400,285.102c-49.136,-56.98 -79.625,-133.655 -73.842,-202.88c48.926,49.312 74.856,127.646 73.842,202.88Z" style="fill:#a8e1df;fill-rule:nonzero;"/></g><g><path d="M400,285.102c-1.014,-75.233 24.916,-153.568 73.842,-202.88c5.783,69.225 -24.706,145.899 -73.842,202.88Z" style="fill:#c5ecac;fill-rule:nonzero;"/></g><g><path d="M400,285.102c45.519,-59.909 114.18,-105.673 183.094,-114.41c-38.062,58.11 -109.293,99.76 -183.094,114.41Z" style="fill:#ddf8c3;fill-rule:nonzero;"/></g><path d="M196.229,270.531c0,-9.703 18.599,-14.942 19.407,-15.129c30.03,-6.969 59.581,-8.641 87.33,-5.582c36.457,4.02 69.802,16.203 97.034,35.266c31.253,-21.877 70.559,-34.694 113.379,-36.508c23.123,-0.979 47.272,1.252 71.731,6.997c0.559,0.132 18.661,5.252 18.661,14.955l0,82.479c0,9.703 -7.278,16.981 -16.981,14.555c-70.349,-14.555 -138.273,-4.852 -186.79,29.11c-48.517,-33.962 -116.441,-43.665 -186.79,-29.11c-9.703,2.426 -16.981,-4.852 -16.981,-14.555l0,-82.479Z" style="fill:#5d97d1;fill-rule:nonzero;"/><path d="M215.636,277.809c65.498,-14.555 128.57,-4.852 174.661,26.684l0,72.775c-46.091,-26.684 -109.163,-36.388 -174.661,-24.258l0,-75.201Z" style="fill:#88c7db;fill-rule:nonzero;"/><path d="M584.364,277.809c-65.498,-14.555 -128.57,-4.852 -174.661,26.684l0,72.775c46.091,-26.684 109.163,-36.388 174.661,-24.258l0,-75.201Z" style="fill:#a8e1df;fill-rule:nonzero;"/><path d="M215.636,277.809c65.498,-14.555 128.57,-4.852 174.661,26.684l0,31.536l-174.661,-24.258l0,-33.962Z" style="fill:#fff;fill-opacity:0.18;fill-rule:nonzero;"/><path d="M584.364,277.809c-65.498,-14.555 -128.57,-4.852 -174.661,26.684l0,31.536l174.661,-24.258l0,-33.962Z" style="fill:#fff;fill-opacity:0.22;fill-rule:nonzero;"/></g><g><g><path d="M250.299,449.199c2.247,0 4.152,-0.804 5.716,-2.412c1.564,-1.608 2.346,-3.535 2.346,-5.782l0,-0.991c0,-2.291 -0.782,-4.24 -2.346,-5.848c-1.564,-1.608 -3.469,-2.412 -5.716,-2.412l-19.627,0c-2.203,0 -4.097,-0.804 -5.683,-2.412c-1.586,-1.608 -2.379,-3.558 -2.379,-5.848l0,-5.155c0,-2.291 0.793,-4.24 2.379,-5.848c1.586,-1.608 3.48,-2.412 5.683,-2.412l23.262,0c2.203,0 4.086,-0.804 5.65,-2.412c1.564,-1.608 2.346,-3.558 2.346,-5.848l0,-1.057c0,-2.247 -0.782,-4.174 -2.346,-5.782c-1.564,-1.608 -3.447,-2.412 -5.65,-2.412l-27.689,0c-7.137,0 -13.217,2.577 -18.239,7.732c-5.022,5.155 -7.534,11.366 -7.534,18.636l0,59.608c0,2.247 0.782,4.174 2.346,5.782c1.564,1.608 3.469,2.412 5.716,2.412l6.08,0c2.203,0 4.086,-0.804 5.65,-2.412c1.564,-1.608 2.346,-3.535 2.346,-5.782l0,-29.341l27.689,0Z" style="fill:#5d97d1;fill-rule:nonzero;"/><path d="M264.573,452.437l0.066,3.436c0.441,9.56 3.392,17.138 8.855,22.733c5.463,5.595 12.71,8.393 21.742,8.393c9.384,0 16.829,-2.996 22.336,-8.987c5.507,-5.992 8.26,-14.098 8.26,-24.319l0,-0.727c0,-10.485 -2.731,-18.768 -8.194,-24.848c-5.507,-6.08 -12.997,-9.12 -22.469,-9.12c-6.256,0 -11.675,1.388 -16.257,4.163c-4.626,2.731 -8.172,6.652 -10.64,11.763c-2.467,5.11 -3.701,10.948 -3.701,17.512Zm19.759,1.256l0.066,-3.701c0.573,-10.133 4.163,-15.199 10.772,-15.199c7.269,0 10.904,5.881 10.904,17.644l0,2.049c-0.176,11.19 -3.789,16.785 -10.838,16.785c-3.569,0 -6.278,-1.41 -8.128,-4.229c-1.85,-2.864 -2.776,-7.313 -2.776,-13.349Z" style="fill:#5d97d1;fill-rule:nonzero;"/><path d="M353.716,486.999l0,-74.477c0,-5.375 -1.817,-9.968 -5.452,-13.779c-3.635,-3.811 -8.029,-5.716 -13.184,-5.716l-1.19,0l0,76.79c0,4.714 1.608,8.756 4.824,12.126c3.216,3.37 7.115,5.055 11.697,5.055l3.304,0Z" style="fill:#5d97d1;fill-rule:nonzero;"/><path d="M381.598,421.972l0,-29.341c-5.463,0 -10.133,2.027 -14.01,6.08c-3.877,4.053 -5.815,8.965 -5.815,14.737l0,74.08c5.463,0 10.133,-2.038 14.01,-6.113c3.877,-4.075 5.815,-8.976 5.815,-14.704l0,-27.161c1.674,-2.687 4.538,-4.031 8.591,-4.031c3.304,0 5.639,0.815 7.005,2.445c1.366,1.674 2.049,4.295 2.049,7.864l0,41.699c5.463,0 10.133,-2.038 14.01,-6.113c3.877,-4.075 5.815,-8.998 5.815,-14.77l0,-21.345c-0.088,-8.503 -1.916,-14.935 -5.485,-19.297c-3.569,-4.406 -8.833,-6.608 -15.794,-6.608c-4.802,0 -8.965,1.476 -12.49,4.428c-0.793,0.617 -1.608,0.716 -2.445,0.297c-0.837,-0.419 -1.256,-1.134 -1.256,-2.148Z" style="fill:#5d97d1;fill-rule:nonzero;"/><path d="M460.695,487.065c5.375,0 10.397,-1.035 15.067,-3.106c4.67,-2.071 8.26,-4.868 10.772,-8.393l-9.318,-10.97c-2.555,2.247 -4.912,3.932 -7.071,5.055c-2.159,1.123 -4.846,1.685 -8.062,1.685c-3.921,0 -7.115,-1.035 -9.582,-3.106c-2.423,-2.115 -4.009,-5 -4.758,-8.657l32.645,0c2.203,0 4.075,-0.771 5.617,-2.313c1.542,-1.542 2.313,-3.414 2.313,-5.617c-0.397,-6.3 -1.178,-11.179 -2.346,-14.638c-1.167,-3.458 -3.051,-6.531 -5.65,-9.219c-5.331,-5.727 -12.6,-8.591 -21.808,-8.591c-6.52,0 -12.159,1.41 -16.918,4.229c-4.758,2.776 -8.393,6.741 -10.904,11.895c-2.467,5.11 -3.701,11.014 -3.701,17.711l0,1.718c0,9.56 3.106,17.336 9.318,23.328c6.212,5.992 14.34,8.987 24.385,8.987Zm-2.313,-52.14c3.26,0 5.749,0.903 7.467,2.709c1.718,1.806 2.555,4.34 2.511,7.6l0,1.586l-20.618,0c1.145,-7.93 4.692,-11.895 10.64,-11.895Z" style="fill:#5d97d1;fill-rule:nonzero;"/><path d="M544.089,485.942l8.723,-0.132l0,-0.991c-1.718,-3.128 -2.621,-7.666 -2.709,-13.613l0,-28.614c-0.088,-7.005 -2.489,-12.534 -7.203,-16.587c-4.67,-4.009 -11.058,-6.014 -19.164,-6.014c-8.106,0 -14.759,1.96 -19.957,5.881c-5.243,3.877 -7.864,8.943 -7.864,15.199l19.759,0c0,-4.714 2.357,-7.071 7.071,-7.071c5.022,0 7.534,2.974 7.534,8.921l0,3.436l-6.08,0c-9.692,0 -17.094,1.784 -22.204,5.353c-6.652,4.714 -8.943,12.38 -6.873,22.997c4.934,8.194 11.873,12.292 20.816,12.292c6.52,0 11.609,-2.313 15.265,-6.939c2.952,3.48 7.247,5.441 12.886,5.881Zm-23.394,-13.283c-1.894,0 -3.436,-0.551 -4.626,-1.652c-1.234,-1.145 -1.85,-2.643 -1.85,-4.494c0,-6.256 3.436,-9.384 10.309,-9.384l5.749,0l0,10.309c-0.705,1.366 -1.85,2.577 -3.436,3.635c-1.63,1.057 -3.679,1.586 -6.146,1.586Z" style="fill:#5d97d1;fill-rule:nonzero;"/><path d="M599.132,440.079l0.397,-19.429c-1.586,-0.485 -3.436,-0.727 -5.551,-0.727c-5.948,0 -10.573,3.282 -13.878,9.847l-0.661,-8.591c-5.11,0 -9.483,1.905 -13.118,5.716c-3.635,3.811 -5.452,8.426 -5.452,13.845l0,43.285c0,1.145 0.385,2.126 1.156,2.941c0.771,0.815 1.685,1.223 2.742,1.223c4.406,0 8.161,-1.641 11.267,-4.923c3.106,-3.282 4.659,-7.236 4.659,-11.862l0,-25.641c1.762,-4.141 5.749,-6.212 11.961,-6.212l6.476,0.529Z" style="fill:#5d97d1;fill-rule:nonzero;"/></g></g><g><g><path d="M288.813,525.834c0,2.22 0.766,4.119 2.298,5.695c1.532,1.576 3.379,2.365 5.54,2.365l4.707,0c3.76,-0.03 6.595,-0.829 8.504,-2.398c1.924,-1.554 2.886,-3.893 2.886,-7.016c0,-1.717 -0.437,-3.175 -1.31,-4.374c-0.859,-1.184 -2.095,-1.998 -3.708,-2.442c1.436,-0.548 2.516,-1.406 3.242,-2.576c0.74,-1.169 1.11,-2.576 1.11,-4.219c0,-2.857 -1.036,-5.033 -3.109,-6.528c-2.072,-1.51 -5.092,-2.265 -9.059,-2.265l-11.102,0l0,23.758Zm7.46,-10.48l0,-7.372l3.641,0c1.673,0 2.879,0.296 3.619,0.888c0.755,0.592 1.132,1.562 1.132,2.909c0,1.169 -0.348,2.05 -1.044,2.642c-0.696,0.607 -1.858,0.918 -3.486,0.933l-3.863,0Zm3.664,5.018l1.554,0c2.546,0.015 3.819,1.347 3.819,3.997c0,1.155 -0.355,2.05 -1.066,2.687c-0.725,0.622 -1.762,0.933 -3.109,0.933l-4.863,0l0,-3.841c0,-1.036 0.355,-1.924 1.066,-2.664c0.711,-0.74 1.576,-1.11 2.598,-1.11Z" style="fill:#88c7db;fill-rule:nonzero;"/><path d="M314.525,533.716c1.806,0 3.349,-0.659 4.629,-1.976c1.28,-1.317 1.921,-2.916 1.921,-4.796l0,-23.98c0,-0.326 -0.115,-0.607 -0.344,-0.844c-0.229,-0.237 -0.5,-0.355 -0.81,-0.355c-1.732,0 -3.212,0.637 -4.441,1.91c-1.229,1.273 -1.843,2.805 -1.843,4.596l0,24.535c0,0.252 0.089,0.466 0.266,0.644c0.178,0.178 0.385,0.266 0.622,0.266Z" style="fill:#88c7db;fill-rule:nonzero;"/><path d="M325.403,525.834c0,2.22 0.766,4.119 2.298,5.695c1.532,1.576 3.379,2.365 5.54,2.365l4.707,0c3.76,-0.03 6.595,-0.829 8.504,-2.398c1.924,-1.554 2.886,-3.893 2.886,-7.016c0,-1.717 -0.437,-3.175 -1.31,-4.374c-0.859,-1.184 -2.095,-1.998 -3.708,-2.442c1.436,-0.548 2.516,-1.406 3.242,-2.576c0.74,-1.169 1.11,-2.576 1.11,-4.219c0,-2.857 -1.036,-5.033 -3.109,-6.528c-2.072,-1.51 -5.092,-2.265 -9.059,-2.265l-11.102,0l0,23.758Zm7.46,-10.48l0,-7.372l3.641,0c1.673,0 2.879,0.296 3.619,0.888c0.755,0.592 1.132,1.562 1.132,2.909c0,1.169 -0.348,2.05 -1.044,2.642c-0.696,0.607 -1.858,0.918 -3.486,0.933l-3.863,0Zm3.664,5.018l1.554,0c2.546,0.015 3.819,1.347 3.819,3.997c0,1.155 -0.355,2.05 -1.066,2.687c-0.725,0.622 -1.762,0.933 -3.109,0.933l-4.863,0l0,-3.841c0,-1.036 0.355,-1.924 1.066,-2.664c0.711,-0.74 1.576,-1.11 2.598,-1.11Z" style="fill:#88c7db;fill-rule:nonzero;"/><path d="M359.817,527.988c-0.089,0 -0.167,-0.03 -0.233,-0.089c-0.067,-0.059 -0.1,-0.141 -0.1,-0.244l0,-21.116c0,-1.229 -0.422,-2.28 -1.266,-3.153c-0.844,-0.873 -1.865,-1.31 -3.064,-1.31l-0.555,0c-0.711,0 -1.314,0.259 -1.81,0.777c-0.496,0.518 -0.744,1.14 -0.744,1.865l0,26.2c0,0.829 0.281,1.532 0.844,2.109c0.562,0.577 1.243,0.866 2.043,0.866l17.186,0c0.089,0 0.167,-0.033 0.233,-0.1c0.067,-0.067 0.1,-0.144 0.1,-0.233c0,-1.539 -0.529,-2.853 -1.588,-3.941c-1.058,-1.088 -2.335,-1.632 -3.83,-1.632l-7.216,0Z" style="fill:#88c7db;fill-rule:nonzero;"/><path d="M375.292,533.716c1.806,0 3.349,-0.659 4.629,-1.976c1.28,-1.317 1.921,-2.916 1.921,-4.796l0,-23.98c0,-0.326 -0.115,-0.607 -0.344,-0.844c-0.229,-0.237 -0.5,-0.355 -0.81,-0.355c-1.732,0 -3.212,0.637 -4.441,1.91c-1.229,1.273 -1.843,2.805 -1.843,4.596l0,24.535c0,0.252 0.089,0.466 0.266,0.644c0.178,0.178 0.385,0.266 0.622,0.266Z" style="fill:#88c7db;fill-rule:nonzero;"/><path d="M411.949,518.551l0,-1.421c-0.015,-2.961 -0.592,-5.595 -1.732,-7.905c-1.14,-2.294 -2.731,-4.063 -4.774,-5.307c-2.058,-1.243 -4.389,-1.865 -6.994,-1.865c-2.65,0 -5.011,0.629 -7.083,1.887c-2.072,1.258 -3.664,3.042 -4.774,5.351c-1.11,2.309 -1.665,4.981 -1.665,8.016l0,1.732c0.059,2.916 0.659,5.492 1.799,7.727c1.14,2.25 2.724,3.982 4.752,5.196c2.043,1.199 4.382,1.799 7.016,1.799c2.62,0 4.959,-0.622 7.016,-1.865c2.058,-1.258 3.649,-3.042 4.774,-5.351c1.11,-2.324 1.665,-4.988 1.665,-7.993Zm-7.571,-1.288l0,1.421c-0.015,2.99 -0.533,5.285 -1.554,6.883c-1.007,1.599 -2.45,2.398 -4.33,2.398c-1.984,0 -3.479,-0.814 -4.485,-2.442c-1.007,-1.628 -1.51,-3.952 -1.51,-6.972l0.022,-2.265c0.207,-5.595 2.183,-8.393 5.928,-8.393c1.91,0 3.375,0.792 4.396,2.376c1.021,1.599 1.532,3.93 1.532,6.994Z" style="fill:#88c7db;fill-rule:nonzero;"/><path d="M434.173,508.138c0.118,0 0.222,-0.044 0.311,-0.133c0.089,-0.089 0.133,-0.2 0.133,-0.333c0,-1.495 -0.514,-2.775 -1.543,-3.841c-1.029,-1.066 -2.276,-1.599 -3.741,-1.599l-20.072,0c-0.118,0 -0.222,0.048 -0.311,0.144c-0.089,0.096 -0.133,0.204 -0.133,0.322c0,1.51 0.518,2.794 1.554,3.852c1.036,1.058 2.28,1.588 3.73,1.588l3.353,0c0.133,0 0.244,0.044 0.333,0.133c0.089,0.089 0.133,0.2 0.133,0.333l0,24.824c0,0.133 0.044,0.244 0.133,0.333c0.089,0.089 0.192,0.133 0.311,0.133c1.939,0 3.59,-0.699 4.951,-2.098c1.362,-1.399 2.043,-3.09 2.043,-5.074l0,-18.118c0,-0.133 0.044,-0.244 0.133,-0.333c0.089,-0.089 0.192,-0.133 0.311,-0.133l8.371,0Z" style="fill:#88c7db;fill-rule:nonzero;"/><path d="M453.31,520.505c0.725,0 1.343,-0.263 1.854,-0.788c0.511,-0.525 0.766,-1.158 0.766,-1.898l0,-0.289c0,-0.74 -0.255,-1.369 -0.766,-1.887c-0.511,-0.518 -1.129,-0.777 -1.854,-0.777l-6.461,0c-0.725,0 -1.343,-0.263 -1.854,-0.788c-0.511,-0.525 -0.766,-1.158 -0.766,-1.898l0,-1.31c0,-0.74 0.255,-1.369 0.766,-1.887c0.511,-0.518 1.129,-0.777 1.854,-0.777l8.637,0c0.725,0 1.343,-0.263 1.854,-0.788c0.511,-0.525 0.766,-1.158 0.766,-1.898l0,-0.511c0,-0.74 -0.255,-1.373 -0.766,-1.898c-0.511,-0.525 -1.129,-0.788 -1.854,-0.788l-18.696,0l0,23.247c0,2.309 0.796,4.278 2.387,5.906c1.591,1.628 3.512,2.442 5.762,2.442l10.502,0c0.725,0 1.343,-0.263 1.854,-0.788c0.511,-0.525 0.766,-1.158 0.766,-1.898l0,-0.488c0,-0.755 -0.255,-1.391 -0.766,-1.91c-0.511,-0.518 -1.129,-0.777 -1.854,-0.777l-8.593,0c-0.725,0 -1.343,-0.263 -1.854,-0.788c-0.511,-0.525 -0.766,-1.158 -0.766,-1.898l0,-2.198c0,-0.74 0.255,-1.369 0.766,-1.887c0.511,-0.518 1.129,-0.777 1.854,-0.777l6.461,0Z" style="fill:#88c7db;fill-rule:nonzero;"/><path d="M484.106,522.903l-1.044,0c-2.842,0 -5.299,1.132 -7.372,3.397c-0.133,0.148 -0.274,0.289 -0.422,0.422c-0.903,0.814 -2.213,1.221 -3.93,1.221c-2.013,0 -3.434,-0.711 -4.263,-2.132c-0.829,-1.406 -1.243,-3.76 -1.243,-7.061l0,-2.176c0.044,-3.035 0.496,-5.247 1.354,-6.639c0.859,-1.377 2.22,-2.065 4.085,-2.065c1.821,0 3.175,0.407 4.063,1.221c0.681,0.637 1.118,1.576 1.31,2.82c0.059,0.355 0.211,0.651 0.455,0.888c0.244,0.237 0.537,0.355 0.877,0.355c1.806,0 3.112,-0.792 3.919,-2.376c0.807,-1.584 0.662,-3.123 -0.433,-4.618c-0.355,-0.414 -0.748,-0.799 -1.177,-1.155c-2.265,-1.984 -5.27,-2.975 -9.015,-2.975c-2.605,0 -4.9,0.622 -6.883,1.865c-1.984,1.229 -3.501,2.983 -4.552,5.262c-1.051,2.265 -1.576,4.907 -1.576,7.927l0,1.532c0,4.811 1.169,8.541 3.508,11.191c2.324,2.635 5.514,3.952 9.57,3.952c2.472,0 4.663,-0.451 6.572,-1.354c1.91,-0.903 3.397,-2.176 4.463,-3.819c1.066,-1.643 1.643,-3.538 1.732,-5.684Z" style="fill:#88c7db;fill-rule:nonzero;"/><path d="M503.821,527.943l1.799,5.951c1.939,0 3.449,-0.796 4.53,-2.387c1.081,-1.591 1.317,-3.371 0.711,-5.34l-8.637,-24.091c-4.204,0 -7.342,2.257 -9.414,6.772l-8.926,25.046l1.932,0c3.582,0 6.187,-1.984 7.816,-5.951l10.192,0Zm-8.415,-6.372l3.308,-11.035l3.331,11.035l-6.639,0Z" style="fill:#88c7db;fill-rule:nonzero;"/></g></g></svg>